HIERARCHY
ROOT Hips
{
	OFFSET 0.000000 0.000000 0.000000
	CHANNELS 6 Xposition Yposition Zposition Zrotation Yrotation Xrotation 
	JOINT LHipJoint
	{
		OFFSET 0.000000 0.000000 0.000000
		CHANNELS 3 Zrotation Yrotation Xrotation
		JOINT LeftUpLeg
		{
			OFFSET 1.363060 -1.794630 0.839290
			CHANNELS 3 Zrotation Yrotation Xrotation
			JOINT LeftLeg
			{
				OFFSET 2.448110 -6.726130 0.000000
				CHANNELS 3 Zrotation Yrotation Xrotation
				JOINT LeftFoot
				{
					OFFSET 2.562200 -7.039590 0.000000
					CHANNELS 3 Zrotation Yrotation Xrotation
					JOINT LeftToeBase
					{
						OFFSET 0.157640 -0.433110 2.322550
						CHANNELS 3 Zrotation Yrotation Xrotation
						End Site
						{
							OFFSET 0.000000 0.000000 0.000000
						}
					}
				}
			}
		}
	}
	JOINT RHipJoint
	{
		OFFSET 0.000000 0.000000 0.000000
		CHANNELS 3 Zrotation Yrotation Xrotation
		JOINT RightUpLeg
		{
			OFFSET -1.305520 -1.794630 0.839290
			CHANNELS 3 Zrotation Yrotation Xrotation
			JOINT RightLeg
			{
				OFFSET -2.542530 -6.985550 0.000000
				CHANNELS 3 Zrotation Yrotation Xrotation
				JOINT RightFoot
				{
					OFFSET -2.568260 -7.056230 0.000000
					CHANNELS 3 Zrotation Yrotation Xrotation
					JOINT RightToeBase
					{
						OFFSET -0.164730 -0.452590 2.363150
						CHANNELS 3 Zrotation Yrotation Xrotation
						End Site
						{
							OFFSET 0.000000 0.000000 0.000000
						}
					}
				}
			}
		}
	}
	JOINT LowerBack
	{
		OFFSET 0.000000 0.000000 0.000000
		CHANNELS 3 Zrotation Yrotation Xrotation
		JOINT Spine
		{
			OFFSET 0.028270 2.035590 -0.193380
			CHANNELS 3 Zrotation Yrotation Xrotation
			JOINT Spine1
			{
				OFFSET 0.056720 2.048850 -0.042750
				CHANNELS 3 Zrotation Yrotation Xrotation
				JOINT Neck
				{
					OFFSET 0.000000 0.000000 0.000000
					CHANNELS 3 Zrotation Yrotation Xrotation
					JOINT Neck1
					{
						OFFSET -0.054170 1.746240 0.172020
						CHANNELS 3 Zrotation Yrotation Xrotation
						JOINT Head
						{
							OFFSET 0.104070 1.761360 -0.123970
							CHANNELS 3 Zrotation Yrotation Xrotation
							End Site
							{
								OFFSET 0.000000 0.000000 0.000000
							}
						}
					}
				}
				JOINT LeftShoulder
				{
					OFFSET 0.000000 0.000000 0.000000
					CHANNELS 3 Zrotation Yrotation Xrotation
					JOINT LeftArm
					{
						OFFSET 3.362410 1.200890 -0.311210
						CHANNELS 3 Zrotation Yrotation Xrotation
						JOINT LeftForeArm
						{
							OFFSET 4.983000 -0.000000 -0.000000
							CHANNELS 3 Zrotation Yrotation Xrotation
							JOINT LeftHand
							{
								OFFSET 3.483560 -0.000000 -0.000000
								CHANNELS 3 Zrotation Yrotation Xrotation
								JOINT LeftFingerBase
								{
									OFFSET 0.000000 0.000000 0.000000
									CHANNELS 3 Zrotation Yrotation Xrotation
									JOINT LeftHandIndex1
									{
										OFFSET 0.715260 -0.000000 -0.000000
										CHANNELS 3 Zrotation Yrotation Xrotation
										End Site
										{
											OFFSET 0.000000 0.000000 0.000000
										}
									}
								}
								JOINT LThumb
								{
									OFFSET 0.000000 0.000000 0.000000
									CHANNELS 3 Zrotation Yrotation Xrotation
									End Site
									{
										OFFSET 0.000000 0.000000 0.000000
									}
								}
							}
						}
					}
				}
				JOINT RightShoulder
				{
					OFFSET 0.000000 0.000000 0.000000
					CHANNELS 3 Zrotation Yrotation Xrotation
					JOINT RightArm
					{
						OFFSET -3.136600 1.374050 -0.404650
						CHANNELS 3 Zrotation Yrotation Xrotation
						JOINT RightForeArm
						{
							OFFSET -5.241900 -0.000000 -0.000000
							CHANNELS 3 Zrotation Yrotation Xrotation
							JOINT RightHand
							{
								OFFSET -3.444170 -0.000000 -0.000000
								CHANNELS 3 Zrotation Yrotation Xrotation
								JOINT RightFingerBase
								{
									OFFSET 0.000000 0.000000 0.000000
									CHANNELS 3 Zrotation Yrotation Xrotation
									JOINT RightHandIndex1
									{
										OFFSET -0.622530 -0.000000 -0.000000
										CHANNELS 3 Zrotation Yrotation Xrotation
										End Site
										{
											OFFSET 0.000000 0.000000 0.000000
										}
									}
								}
								JOINT RThumb
								{
									OFFSET 0.000000 0.000000 0.000000
									CHANNELS 3 Zrotation Yrotation Xrotation
									End Site
									{
										OFFSET 0.000000 0.000000 0.000000
									}
								}
							}
						}
					}
				}
			}
		}
	}
}
MOTION
Frames: 12
Frame Time: 0.008333
0.508974 18.248598 3.265679 -5.740782 -4.959422 2.565786 -1.964282 3.097368 1.901723 -5.267648 -8.054971 -30.648052 1.063956 10.546186 29.689671 -1.166837 7.136107 12.345455 0.057600 -1.549200 -4.261300 4.104099 -4.478833 5.759033 25.778438 10.909643 -4.421683 -0.284631 -5.693328 22.833725 2.087725 -7.382088 0.369640 -0.060600 -1.588900 4.370700 5.416434 1.526103 6.440418 3.125994 2.734451 2.030817 -1.629650 1.264921 -6.510261 -5.878997 -4.041097 -15.898608 4.108108 -4.332720 14.641737 0.088000 -1.837600 8.639100 -7.226416 2.489941 -1.411682 -79.226763 7.558409 27.281888 14.328734 -24.425660 -3.505386 -0.889728 -1.358277 -9.107441 29.022965 19.189013 11.401500 -7.125000 0.000000 0.000000 1.715300 53.169800 0.344800 11.483455 -1.219683 -2.327061 70.713485 6.608903 25.442077 -13.955983 27.146003 -4.236071 1.228676 -0.564169 -2.336511 -19.699502 24.123738 -9.025900 7.125000 0.000000 0.000000 5.218300 -3.985000 4.863700
0.510167 18.246553 3.368204 -5.740698 -5.003075 2.660188 -2.050369 3.054168 1.841158 -5.056589 -8.220751 -30.623580 0.743947 10.109678 28.252878 -1.246310 7.513014 12.659258 0.067412 -1.671706 -4.599215 4.135211 -4.495367 5.818029 25.722769 10.864862 -4.088715 -0.239950 -5.608635 22.582153 2.179813 -7.620240 0.172543 -0.053255 -1.486522 4.088515 5.363650 1.568600 6.280692 3.137578 2.768837 2.072551 -1.577032 1.296862 -6.376496 -5.935802 -4.007169 -16.050440 4.131413 -4.254554 14.716266 0.113679 -1.800035 8.691298 -7.237734 2.500363 -1.409227 -79.360829 7.522868 27.167627 14.047877 -24.020156 -3.381528 -0.917719 -1.278938 -9.138325 29.113380 17.219049 10.353889 -7.125000 0.000000 0.000000 2.124925 50.899762 0.290920 11.480182 -1.199159 -2.315642 70.590531 6.927521 25.640014 -14.065555 27.279658 -4.297344 1.216720 -0.523042 -2.517612 -19.552617 23.489526 -8.728689 7.125000 0.000000 0.000000 5.252164 -4.701648 4.824061
0.511642 18.244545 3.470471 -5.767000 -5.052282 2.746175 -2.135636 3.013623 1.780982 -4.813831 -8.398500 -30.578230 0.429707 9.668944 26.809102 -1.330960 7.911303 12.995055 0.072697 -1.737329 -4.780228 4.165549 -4.512492 5.877706 25.694634 10.821487 -3.736093 -0.194656 -5.520909 22.325839 2.261366 -7.830847 -0.013128 -0.045801 -1.379035 3.792328 5.350355 1.611749 6.132982 3.144249 2.808625 2.115003 -1.551358 1.330272 -6.245950 -5.980010 -3.978177 -16.182131 4.158950 -4.189678 14.783358 0.137428 -1.767591 8.737321 -7.247242 2.510621 -1.407915 -79.480842 7.507238 27.003378 13.807584 -23.672699 -3.275671 -0.938018 -1.214084 -9.093890 29.102762 15.646769 9.485848 -7.125000 0.000000 0.000000 2.365513 49.073896 0.238447 11.476427 -1.180073 -2.304124 70.491794 7.234417 25.814933 -14.163252 27.397316 -4.351496 1.205735 -0.488224 -2.682872 -19.414750 22.954184 -8.471581 7.125000 0.000000 0.000000 5.290300 -5.308617 4.798970
0.514141 18.242671 3.571804 -5.888835 -5.121601 2.801697 -2.217937 2.982691 1.722214 -4.456303 -8.619589 -30.457287 0.136352 9.212906 25.340046 -1.434356 8.387008 13.410484 0.061596 -1.596993 -4.393141 4.193087 -4.531754 5.939848 25.766191 10.783207 -3.312311 -0.147141 -5.422201 22.052358 2.304775 -7.941724 -0.157425 -0.037952 -1.253053 3.445441 5.480038 1.657263 6.028782 3.133131 2.867973 2.160056 -1.623241 1.369002 -6.127056 -5.978607 -3.967055 -16.240898 4.201807 -4.172921 14.823520 0.154192 -1.753686 8.760981 -7.250198 2.520286 -1.410737 -79.549976 7.563700 26.658133 13.714157 -23.535412 -3.234993 -0.930465 -1.201672 -8.776747 28.726340 15.514382 9.267972 -7.125000 0.000000 0.000000 1.994069 48.856244 0.191070 11.470925 -1.166200 -2.292245 70.480736 7.498867 25.906512 -14.217959 27.457059 -4.379866 1.198264 -0.476250 -2.790780 -19.309532 22.776818 -8.359671 7.125000 0.000000 0.000000 5.343900 -5.518476 4.826555
0.516862 18.237478 3.674218 -6.003136 -5.229657 2.856685 -2.303765 2.959672 1.671796 -4.099403 -8.832699 -30.290069 -0.145874 8.747555 23.870317 -1.552626 8.881856 13.739766 0.051344 -1.458623 -4.011661 4.220265 -4.555672 5.999715 25.823952 10.797580 -2.869150 -0.099686 -5.327101 21.787271 2.325957 -7.996590 -0.287542 -0.031316 -1.140296 3.134981 5.593285 1.723809 5.952521 3.119886 2.956116 2.185372 -1.695276 1.419995 -6.046916 -5.960998 -3.961106 -16.220783 4.224615 -4.174854 14.835087 0.159259 -1.750581 8.760810 -7.249758 2.527110 -1.412921 -79.608110 7.646822 26.335200 13.649671 -23.440769 -3.206916 -0.919119 -1.198804 -8.361495 28.298637 15.657687 9.179103 -7.125000 0.000000 0.000000 1.528831 48.949414 0.144689 11.464276 -1.158018 -2.286693 70.470511 7.670750 25.986696 -14.320052 27.582671 -4.433907 1.190406 -0.461448 -2.892361 -19.221371 22.582945 -8.248999 7.125000 0.000000 0.000000 5.385609 -5.745880 4.841181
0.519872 18.227935 3.778049 -6.107565 -5.388471 2.910975 -2.394214 2.947022 1.632319 -3.743325 -9.035355 -30.062215 -0.413519 8.270004 22.399707 -1.690386 9.401788 13.956166 0.042205 -1.322829 -3.637526 4.246974 -4.585689 6.056604 25.863637 10.880947 -2.400595 -0.052310 -5.236729 21.533180 2.318015 -7.978062 -0.399077 -0.026270 -1.044870 2.872251 5.684995 1.817914 5.912871 3.103853 3.081992 2.184823 -1.767510 1.487058 -6.017557 -5.922153 -3.961936 -16.097305 4.221152 -4.201277 14.809187 0.148999 -1.761626 8.729413 -7.244868 2.530211 -1.414270 -79.651828 7.764874 26.041501 13.623109 -23.402004 -3.195354 -0.902802 -1.208439 -7.817690 27.803737 16.162244 9.259279 -7.125000 0.000000 0.000000 0.940689 49.449868 0.099611 11.456123 -1.157295 -2.289433 70.461377 7.721340 26.051950 -14.484237 27.794595 -4.521585 1.182041 -0.442942 -2.985652 -19.155560 22.367443 -8.139949 7.125000 0.000000 0.000000 5.411736 -5.996275 4.838826
0.524210 18.217323 3.882545 -6.188682 -5.504122 2.994339 -2.480903 2.934263 1.586800 -3.386663 -9.341644 -29.845417 -0.657023 7.797782 20.981664 -1.831148 9.883519 14.042388 0.037034 -1.241747 -3.414167 4.272290 -4.612880 6.112081 25.878510 10.936058 -1.989599 -0.010437 -5.157315 21.308411 2.318562 -7.984032 -0.543284 -0.021442 -0.941036 2.586589 5.784574 1.913257 5.908740 3.071844 3.214441 2.145607 -1.863640 1.552803 -6.045200 -5.869655 -4.006923 -16.008400 4.192276 -4.284063 14.788164 0.121229 -1.800446 8.706060 -7.240637 2.533342 -1.416327 -79.656996 7.875929 25.936603 13.584409 -23.351002 -3.178290 -0.894252 -1.225642 -7.086014 27.444699 16.903352 9.503007 -7.125000 0.000000 0.000000 0.435833 50.238987 0.048454 11.447861 -1.157337 -2.293695 70.473176 7.737766 25.996678 -14.647347 28.005459 -4.612343 1.169643 -0.424177 -3.045762 -19.005904 22.125016 -7.985724 7.125000 0.000000 0.000000 5.491264 -6.287840 4.879243
0.529266 18.206134 3.987398 -6.257204 -5.596455 3.093411 -2.565560 2.921446 1.538019 -3.029686 -9.703918 -29.634592 -0.887487 7.328441 19.592020 -1.973532 10.344614 14.058283 0.034007 -1.190221 -3.272262 4.296853 -4.638543 6.166795 25.879981 10.975904 -1.609698 0.028463 -5.083820 21.099481 2.323695 -8.003235 -0.705142 -0.016733 -0.832658 2.288537 5.888403 2.009268 5.923797 3.031202 3.350441 2.085501 -1.972679 1.617837 -6.103638 -5.809781 -4.075766 -15.938171 4.149673 -4.397298 14.769775 0.084001 -1.854270 8.687053 -7.236761 2.536489 -1.418767 -79.641338 7.983204 25.933702 13.539152 -23.293391 -3.158253 -0.889899 -1.246933 -6.252846 27.159058 17.772252 9.835092 -7.125000 0.000000 0.000000 -0.024028 51.184051 -0.005987 11.439541 -1.157792 -2.298779 70.496285 7.735735 25.876295 -14.809875 28.215750 -4.704763 1.155066 -0.405273 -3.087945 -18.810953 21.868043 -7.807095 7.125000 0.000000 0.000000 5.599642 -6.601647 4.942767
0.534862 18.193813 4.092252 -6.228884 -5.619034 3.193006 -2.649323 2.902509 1.484002 -2.800262 -10.041910 -29.494179 -1.097614 6.868853 18.282830 -2.062060 10.628536 14.038373 0.038987 -1.271004 -3.494810 4.318879 -4.660416 6.228655 25.758590 10.867878 -1.341365 0.061475 -5.024530 20.921754 2.315062 -7.983298 -0.683087 -0.025176 -1.005544 2.764287 5.881520 2.060510 5.917180 2.986072 3.415875 2.009888 -2.013506 1.649536 -6.179795 -5.744876 -4.083314 -15.929633 4.062059 -4.414073 14.851806 0.042501 -1.864121 8.712359 -7.233051 2.540434 -1.425643 -79.659337 8.151365 25.733948 13.640337 -23.451733 -3.199820 -0.860532 -1.348874 -4.716821 26.328829 20.888867 10.924622 -7.125000 0.000000 0.000000 -1.842885 54.506824 -0.575051 11.436628 -1.154448 -2.298480 70.462287 7.777903 25.880563 -14.863546 28.285239 -4.736592 1.146512 -0.399212 -3.103800 -18.669142 21.776025 -7.712723 7.125000 0.000000 0.000000 5.686324 -6.723738 5.006631
0.540510 18.181019 4.197158 -6.195352 -5.635769 3.289245 -2.730789 2.883347 1.430355 -2.583080 -10.366924 -29.362490 -1.302093 6.412109 16.990740 -2.138182 10.874379 14.014793 0.044999 -1.368441 -3.763243 4.339477 -4.681646 6.291411 25.629804 10.730992 -1.087142 0.092718 -4.967433 20.749629 2.307087 -7.963313 -0.613470 -0.037023 -1.234433 3.394275 5.861771 2.103968 5.908132 2.946371 3.469850 1.933248 -2.039773 1.675848 -6.258780 -5.688806 -4.076909 -15.923397 3.975294 -4.409065 14.947494 0.005406 -1.863899 8.742853 -7.229555 2.544509 -1.433960 -79.686634 8.338886 25.490647 13.781407 -23.669044 -3.258607 -0.823076 -1.477894 -3.020551 25.296324 24.731002 12.152159 -7.125000 0.000000 0.000000 -4.541365 58.517368 -1.758855 11.435148 -1.150364 -2.296741 70.415762 7.831969 25.910949 -14.892430 28.322414 -4.754189 1.140054 -0.396877 -3.111058 -18.555039 21.735984 -7.649077 7.125000 0.000000 0.000000 5.758929 -6.784286 5.064536
0.545792 18.164887 4.302636 -6.271591 -5.708194 3.347045 -2.788121 2.872271 1.389922 -2.281474 -10.588952 -29.206179 -1.478711 5.970247 15.750250 -2.169025 11.001851 14.012290 0.048644 -1.422546 -3.912381 4.348534 -4.702260 6.351797 25.631503 10.527974 -0.797130 0.114396 -4.910228 20.586014 2.330339 -8.010715 -0.331138 -0.064103 -1.601503 4.406284 5.890236 2.138076 5.909515 2.975170 3.518125 1.872024 -2.021600 1.699773 -6.338656 -5.740255 -4.020819 -15.835852 3.976107 -4.327857 15.021659 0.024974 -1.827344 8.754459 -7.228161 2.548669 -1.450696 -79.759498 8.637226 25.101956 14.114374 -24.171021 -3.403074 -0.738573 -1.769782 -0.751978 22.946927 32.785737 13.608610 -7.125000 0.000000 0.000000 -14.717628 66.092854 -8.923650 11.440315 -1.144604 -2.288242 70.328232 7.942373 26.017103 -14.833036 28.242564 -4.717780 1.146577 -0.413916 -3.067872 -18.658554 21.990927 -7.782797 7.125000 0.000000 0.000000 5.711777 -6.489318 5.055229
0.551854 18.150841 4.408962 -6.357101 -5.772526 3.409884 -2.843399 2.864098 1.349845 -1.969527 -10.841031 -29.039615 -1.645821 5.531993 14.527976 -2.199905 11.124040 13.998947 0.050966 -1.457036 -4.007410 4.355596 -4.721612 6.410896 25.639535 10.317870 -0.514893 0.134724 -4.855958 20.435609 2.336328 -8.017414 -0.106143 -0.086514 -1.895084 5.215915 5.948728 2.177743 5.882447 3.000322 3.574567 1.821531 -2.025152 1.727876 -6.392625 -5.795957 -3.968235 -15.743490 3.993815 -4.253018 15.073125 0.050164 -1.793014 8.758249 -7.230768 2.551813 -1.482133 -79.837979 8.987865 25.615508 14.753822 -25.122524 -3.742390 -0.689183 -2.239414 -0.439649 26.231270 42.973180 20.507154 -7.125000 0.000000 0.000000 -44.536167 47.148841 15.917580 11.445349 -1.139043 -2.276250 70.261690 8.058354 26.031440 -14.775761 28.164433 -4.683796 1.151380 -0.431158 -3.003108 -18.733813 22.236793 -7.901136 7.125000 0.000000 0.000000 5.682851 -6.208191 5.060583
